<svg viewBox="0 0 68 57" fill="none" xmlns="http://www.w3.org/2000/svg">
    <path d="M68 28.5001C67.9965 25.5072 67.178 22.5717 65.6323 20.0086C64.0866 17.4454 61.872 15.3513 59.2261 13.9509C59.1645 11.0459 58.2161 8.22904 56.5082 5.87789C54.8002 3.52674 52.4142 1.75361 49.6699 0.796094C46.9256 -0.161418 43.9542 -0.257564 41.1537 0.52054C38.3532 1.29864 35.8575 2.91383 34.001 5.14964C32.1446 2.91383 29.6489 1.29864 26.8484 0.52054C24.0479 -0.257564 21.0764 -0.161418 18.3321 0.796094C15.5879 1.75361 13.2019 3.52674 11.4939 5.87789C9.78596 8.22904 8.83763 11.0459 8.77601 13.9509C6.1274 15.3475 3.91034 17.4403 2.36383 20.0037C0.817312 22.5671 0 25.5038 0 28.4973C0 31.4908 0.817312 34.4276 2.36383 36.991C3.91034 39.5543 6.1274 41.6471 8.77601 43.0437C8.83655 45.9492 9.7841 48.7668 11.4916 51.1188C13.1992 53.4708 15.5851 55.2448 18.3297 56.203C21.0742 57.1612 24.0461 57.2578 26.8471 56.4799C29.6481 55.7019 32.1443 54.0866 34.001 51.8505C35.8578 54.0866 38.354 55.7019 41.155 56.4799C43.956 57.2578 46.9279 57.1612 49.6724 56.203C52.4169 55.2448 54.8029 53.4708 56.5104 51.1188C58.218 48.7668 59.1655 45.9492 59.2261 43.0437C61.8729 41.6459 64.0884 39.5531 65.6344 36.9906C67.1803 34.428 67.9982 31.4926 68 28.5001ZM23.0336 50.4279C21.3771 50.4277 19.765 49.8919 18.4382 48.9004C17.1114 47.9089 16.1409 46.515 15.6718 44.9268C15.9459 44.9268 16.19 44.946 16.4532 44.946H18.6467C19.5193 44.946 20.3562 44.5994 20.9732 43.9826C21.5902 43.3657 21.9369 42.5291 21.9369 41.6568C21.9369 40.7844 21.5902 39.9478 20.9732 39.331C20.3562 38.7141 19.5193 38.3676 18.6467 38.3676H16.4532C14.1235 38.3692 11.8684 37.5471 10.0867 36.0465C8.305 34.546 7.11165 32.4639 6.71774 30.1685C6.32384 27.8731 6.75478 25.5124 7.93431 23.504C9.11385 21.4957 10.966 19.9691 13.163 19.1944C13.8047 18.9676 14.3603 18.5474 14.7532 17.9917C15.146 17.436 15.3568 16.7721 15.3564 16.0916V14.247C15.3564 12.2115 16.1653 10.2594 17.605 8.82009C19.0448 7.3808 20.9975 6.57221 23.0336 6.57221C25.0697 6.57221 27.0225 7.3808 28.4622 8.82009C29.902 10.2594 30.7108 12.2115 30.7108 14.247V30.734C29.6515 30.0606 28.5084 29.5289 27.3109 29.1524C26.4783 28.8907 25.5758 28.9704 24.8019 29.3739C24.028 29.7774 23.4462 30.4717 23.1844 31.3041C22.9227 32.1365 23.0023 33.0387 23.406 33.8123C23.8096 34.5859 24.5042 35.1676 25.3368 35.4293C27.0886 35.9778 28.5858 37.1356 29.5569 38.6929C30.5281 40.2502 30.909 42.1038 30.6304 43.9177C30.3519 45.7316 29.4324 47.3856 28.0387 48.58C26.645 49.7744 24.8693 50.43 23.0336 50.4279ZM51.5489 38.3676H49.3554C48.4828 38.3676 47.6459 38.7141 47.0289 39.331C46.4118 39.9478 46.0652 40.7844 46.0652 41.6568C46.0652 42.5291 46.4118 43.3657 47.0289 43.9826C47.6459 44.5994 48.4828 44.946 49.3554 44.946H51.5489C51.8231 44.946 52.0698 44.946 52.3303 44.9268C51.9544 46.1982 51.2554 47.3505 50.3014 48.2716C49.3475 49.1926 48.1712 49.8509 46.8871 50.1823C45.603 50.5137 44.2549 50.5069 42.9742 50.1625C41.6935 49.8182 40.5238 49.1481 39.5792 48.2175C38.6347 47.2869 37.9473 46.1276 37.5842 44.8524C37.2211 43.5773 37.1946 42.2299 37.5073 40.9415C37.8201 39.6531 38.4613 38.4676 39.3686 37.5006C40.2759 36.5337 41.4183 35.8181 42.6845 35.4238C43.5178 35.1646 44.2141 34.5851 44.62 33.8128C45.026 33.0405 45.1084 32.1386 44.8492 31.3055C44.5899 30.4724 44.0103 29.7764 43.2377 29.3705C42.4651 28.9647 41.5629 28.8823 40.7295 29.1415C39.5177 29.517 38.3614 30.0526 37.2913 30.734V14.247C37.2913 12.2115 38.1001 10.2594 39.5399 8.82009C40.9796 7.3808 42.9323 6.57221 44.9684 6.57221C47.0046 6.57221 48.9573 7.3808 50.397 8.82009C51.8368 10.2594 52.6456 12.2115 52.6456 14.247V16.0916C52.6453 16.7721 52.856 17.436 53.2489 17.9917C53.6418 18.5474 54.1973 18.9676 54.8391 19.1944C57.046 19.9621 58.9088 21.4875 60.0963 23.4993C61.2838 25.5111 61.7188 27.8788 61.324 30.1811C60.9292 32.4835 59.7301 34.5711 57.9402 36.0727C56.1503 37.5742 53.8855 38.3923 51.5489 38.3813V38.3676ZM55.9359 26.3073C55.9359 27.1796 55.5892 28.0162 54.9722 28.6331C54.3551 29.2499 53.5182 29.5965 52.6456 29.5965C49.7369 29.5965 46.9473 28.4413 44.8905 26.3852C42.8337 24.3291 41.6782 21.5403 41.6782 18.6325V17.5361C41.6782 16.6638 42.0249 15.8272 42.6419 15.2103C43.2589 14.5935 44.0958 14.247 44.9684 14.247C45.8411 14.247 46.6779 14.5935 47.295 15.2103C47.912 15.8272 48.2587 16.6638 48.2587 17.5361V18.6325C48.2587 19.7957 48.7209 20.9111 49.5436 21.7336C50.3663 22.5561 51.4821 23.0181 52.6456 23.0181C53.5182 23.0181 54.3551 23.3646 54.9722 23.9815C55.5892 24.5983 55.9359 25.4349 55.9359 26.3073ZM15.3564 29.5965C14.4838 29.5965 13.6469 29.2499 13.0299 28.6331C12.4129 28.0162 12.0662 27.1796 12.0662 26.3073C12.0662 25.4349 12.4129 24.5983 13.0299 23.9815C13.6469 23.3646 14.4838 23.0181 15.3564 23.0181C16.5199 23.0181 17.6358 22.5561 18.4585 21.7336C19.2812 20.9111 19.7434 19.7957 19.7434 18.6325V17.5361C19.7434 16.6638 20.0901 15.8272 20.7071 15.2103C21.3241 14.5935 22.161 14.247 23.0336 14.247C23.9063 14.247 24.7431 14.5935 25.3602 15.2103C25.9772 15.8272 26.3239 16.6638 26.3239 17.5361V18.6325C26.3239 21.5403 25.1684 24.3291 23.1116 26.3852C21.0548 28.4413 18.2652 29.5965 15.3564 29.5965Z" fill="#F13D3D"/>
    </svg>
    