<svg viewBox="0 0 58 43" fill="none" xmlns="http://www.w3.org/2000/svg">
    <path d="M7.16667 7.16667C5.26595 7.16667 3.44308 7.92172 2.09907 9.26573C0.755057 10.6097 0 12.4326 0 14.3333L0 35.8333C0 37.7341 0.755057 39.5569 2.09907 40.9009C3.44308 42.2449 5.26595 43 7.16667 43H50.1667C52.0674 43 53.8903 42.2449 55.2343 40.9009C56.5783 39.5569 57.3333 37.7341 57.3333 35.8333V14.3333C57.3333 12.4326 56.5783 10.6097 55.2343 9.26573C53.8903 7.92172 52.0674 7.16667 50.1667 7.16667H45.967C44.0664 7.16626 42.2439 6.41094 40.9002 5.06683L37.9332 2.09983C36.5895 0.755729 34.7669 0.000405901 32.8663 0H24.467C22.5664 0.000405901 20.7439 0.755729 19.4002 2.09983L16.4332 5.06683C15.0895 6.41094 13.2669 7.16626 11.3663 7.16667H7.16667ZM8.95833 14.3333C8.48315 14.3333 8.02744 14.1446 7.69143 13.8086C7.35543 13.4726 7.16667 13.0168 7.16667 12.5417C7.16667 12.0665 7.35543 11.6108 7.69143 11.2748C8.02744 10.9388 8.48315 10.75 8.95833 10.75C9.43351 10.75 9.88923 10.9388 10.2252 11.2748C10.5612 11.6108 10.75 12.0665 10.75 12.5417C10.75 13.0168 10.5612 13.4726 10.2252 13.8086C9.88923 14.1446 9.43351 14.3333 8.95833 14.3333ZM41.2083 23.2917C41.2083 26.6179 39.887 29.8079 37.535 32.16C35.1829 34.512 31.9929 35.8333 28.6667 35.8333C25.3404 35.8333 22.1504 34.512 19.7984 32.16C17.4464 29.8079 16.125 26.6179 16.125 23.2917C16.125 19.9654 17.4464 16.7754 19.7984 14.4234C22.1504 12.0714 25.3404 10.75 28.6667 10.75C31.9929 10.75 35.1829 12.0714 37.535 14.4234C39.887 16.7754 41.2083 19.9654 41.2083 23.2917Z" fill="#F13D3D"/>
    </svg>
    