<svg viewBox="0 0 67 54" fill="none" xmlns="http://www.w3.org/2000/svg">
    <path d="M18.2844 18.6899L8.30464 27.0003L18.2844 35.3108C18.6154 35.5819 18.8894 35.9158 19.0906 36.2932C19.2919 36.6706 19.4163 37.0841 19.4569 37.5099C19.4974 37.9356 19.4532 38.3651 19.3268 38.7737C19.2004 39.1823 18.9944 39.5618 18.7205 39.8904C18.4466 40.219 18.1103 40.4902 17.7311 40.6882C17.3518 40.8863 16.9371 41.0074 16.5108 41.0445C16.0845 41.0816 15.6551 41.034 15.2472 40.9044C14.8394 40.7749 14.4613 40.5659 14.1347 40.2896L1.16694 29.4897C0.801711 29.1857 0.507856 28.805 0.306195 28.3749C0.104533 27.9447 0 27.4754 0 27.0003C0 26.5253 0.104533 26.056 0.306195 25.6258C0.507856 25.1957 0.801711 24.815 1.16694 24.511L14.1347 13.7111C14.7963 13.1693 15.6453 12.9107 16.4968 12.9917C17.3483 13.0726 18.1332 13.4866 18.6807 14.1434C19.2281 14.8002 19.4936 15.6466 19.4194 16.4982C19.3452 17.3498 18.9372 18.1375 18.2844 18.6899ZM65.8331 24.511L52.8653 13.7111C52.5387 13.4348 52.1606 13.2258 51.7527 13.0962C51.3449 12.9667 50.9155 12.9191 50.4892 12.9562C50.0629 12.9933 49.6482 13.1144 49.2689 13.3124C48.8897 13.5105 48.5534 13.7817 48.2795 14.1103C48.0056 14.4389 47.7996 14.8184 47.6732 15.227C47.5468 15.6356 47.5026 16.0651 47.5431 16.4908C47.5837 16.9166 47.7081 17.3301 47.9094 17.7075C48.1106 18.0849 48.3846 18.4188 48.7156 18.6899L58.6954 27.0003L48.7156 35.3108C48.3846 35.5819 48.1106 35.9158 47.9094 36.2932C47.7081 36.6706 47.5837 37.0841 47.5431 37.5099C47.5026 37.9356 47.5468 38.3651 47.6732 38.7737C47.7996 39.1823 48.0056 39.5618 48.2795 39.8904C48.5534 40.219 48.8897 40.4902 49.2689 40.6882C49.6482 40.8863 50.0629 41.0074 50.4892 41.0445C50.9155 41.0816 51.3449 41.034 51.7527 40.9044C52.1606 40.7749 52.5387 40.5659 52.8653 40.2896L65.8331 29.4897C66.1983 29.1857 66.4921 28.805 66.6938 28.3749C66.8955 27.9447 67 27.4754 67 27.0003C67 26.5253 66.8955 26.056 66.6938 25.6258C66.4921 25.1957 66.1983 24.815 65.8331 24.511ZM43.2529 0.195095C42.8527 0.0496499 42.4277 -0.0155792 42.0023 0.00313397C41.5769 0.0218472 41.1593 0.124137 40.7735 0.304158C40.3876 0.48418 40.041 0.738407 39.7535 1.05232C39.466 1.36623 39.2432 1.73368 39.0978 2.13367L21.8074 49.653C21.5143 50.4604 21.554 51.3511 21.9177 52.1293C22.2814 52.9074 22.9395 53.5094 23.7471 53.8029C24.1017 53.9338 24.4768 54.0005 24.8548 54C25.5204 54.0001 26.1699 53.7955 26.7151 53.4139C27.2604 53.0323 27.6748 52.4922 27.9022 51.867L45.1926 4.34764C45.3382 3.9477 45.4034 3.52302 45.3847 3.09786C45.366 2.6727 45.2636 2.2554 45.0835 1.86978C44.9034 1.48416 44.649 1.13779 44.3349 0.850442C44.0208 0.563096 43.6531 0.340407 43.2529 0.195095Z" fill="#F13D3D"/>
    </svg>
    