<svg viewBox="0 0 54 54" fill="none" xmlns="http://www.w3.org/2000/svg">
    <path d="M4.09708 40.36V49.9029H13.64L41.7851 21.7323L32.2422 12.1894L4.09708 40.36ZM54 43.1847L43.1847 54L29.9519 40.7672L34.4562 36.263L37.0009 38.8077L43.2865 32.4967L46.9001 36.1103L43.1847 39.7238L45.8822 42.2686L49.4958 38.7059L54 43.1847ZM13.2837 24.0226L0 10.8153L10.8153 0L15.2941 4.50424L9.00848 10.8153L11.7314 13.5127L17.9915 7.2017L21.6051 10.8153L17.9915 14.4034L20.5363 16.9482L13.2837 24.0226ZM49.1649 14.2762C50.1574 13.2837 50.1574 11.7314 49.1649 10.688L43.2102 4.83506C42.2686 3.8426 40.6145 3.8426 39.6221 4.83506L34.9397 9.49199L44.4826 19.0349L49.1649 14.2762Z" fill="#F13D3D"/>
    </svg>
    