<svg viewBox="0 0 19 19" fill="none" xmlns="http://www.w3.org/2000/svg">
    <path d="M9.5 0C8.25244 0 7.0171 0.251825 5.86451 0.741098C4.71191 1.23037 3.66464 1.94751 2.78249 2.85157C1.00089 4.67739 0 7.15375 0 9.73586C0 14.0391 2.7265 17.6901 6.498 18.9849C6.973 19.0628 7.125 18.761 7.125 18.4981V16.8528C4.4935 17.4369 3.933 15.5482 3.933 15.5482C3.496 14.4188 2.8785 14.117 2.8785 14.117C2.014 13.5134 2.945 13.5328 2.945 13.5328C3.895 13.601 4.3985 14.5356 4.3985 14.5356C5.225 16.0155 6.6215 15.5774 7.163 15.3437C7.2485 14.7109 7.4955 14.2825 7.7615 14.0391C5.6525 13.7957 3.439 12.9584 3.439 9.24906C3.439 8.16838 3.8 7.30189 4.4175 6.61065C4.3225 6.36725 3.99 5.35472 4.5125 4.04038C4.5125 4.04038 5.3105 3.77751 7.125 5.03344C7.8755 4.81925 8.6925 4.71215 9.5 4.71215C10.3075 4.71215 11.1245 4.81925 11.875 5.03344C13.6895 3.77751 14.4875 4.04038 14.4875 4.04038C15.01 5.35472 14.6775 6.36725 14.5825 6.61065C15.2 7.30189 15.561 8.16838 15.561 9.24906C15.561 12.9682 13.338 13.786 11.2195 14.0294C11.5615 14.3312 11.875 14.9251 11.875 15.8305V18.4981C11.875 18.761 12.027 19.0725 12.5115 18.9849C16.283 17.6803 19 14.0391 19 9.73586C19 8.45733 18.7543 7.19131 18.2769 6.0101C17.7994 4.8289 17.0997 3.75562 16.2175 2.85157C15.3354 1.94751 14.2881 1.23037 13.1355 0.741098C11.9829 0.251825 10.7476 0 9.5 0Z" fill="#F13D3D"/>
    </svg>
    