<svg viewBox="0 0 61 61" fill="none" xmlns="http://www.w3.org/2000/svg">
    <path d="M30.5 61C22.4109 61 14.6531 57.7866 8.93324 52.0668C3.21338 46.3469 0 38.5891 0 30.5C0 22.4109 3.21338 14.6531 8.93324 8.93324C14.6531 3.21338 22.4109 0 30.5 0C38.5891 0 46.3469 3.21338 52.0668 8.93324C57.7866 14.6531 61 22.4109 61 30.5C61 38.5891 57.7866 46.3469 52.0668 52.0668C46.3469 57.7866 38.5891 61 30.5 61ZM54.1375 36.6C55.1692 32.5988 55.1692 28.4012 54.1375 24.4H42.4865C42.7692 28.4618 42.7692 32.5382 42.4865 36.6H54.1375ZM51.6365 42.7H41.8155C41.3046 46.3763 40.3311 49.9734 38.918 53.4055C44.276 51.429 48.7748 47.6422 51.6365 42.7ZM24.644 36.6H36.356C36.687 32.5401 36.687 28.4599 36.356 24.4H24.644C24.313 28.4599 24.313 32.5401 24.644 36.6ZM25.4065 42.7C26.657 50.02 28.853 54.9 30.5 54.9C32.147 54.9 34.343 50.02 35.5935 42.7H25.4065ZM6.8625 36.6H18.5135C18.2308 32.5382 18.2308 28.4618 18.5135 24.4H6.8625C5.83076 28.4012 5.83076 32.5988 6.8625 36.6ZM9.3635 42.7C12.2252 47.6422 16.724 51.429 22.082 53.4055C20.801 50.4775 19.825 46.8175 19.1845 42.7H9.3635ZM51.6365 18.3C48.7748 13.3578 44.276 9.57101 38.918 7.5945C40.199 10.5225 41.175 14.1825 41.8155 18.3H51.6365ZM25.4065 18.3H35.5935C34.343 10.98 32.147 6.1 30.5 6.1C28.853 6.1 26.657 10.98 25.4065 18.3ZM9.3635 18.3H19.1845C19.7945 14.1825 20.801 10.5225 22.082 7.5945C16.724 9.57101 12.2252 13.3578 9.3635 18.3Z" fill="#F13D3D"/>
    </svg>
    